<svg id="Layer_1" data-name="Layer 1" xmlns="http://www.w3.org/2000/svg" viewBox="0 0 612 792"><defs><style>.cls-1{fill:#245828;}</style></defs><path class="cls-1" d="M371.38,356.48c-10.76-15.54-47.59-34.56-59.24-70.42s-109.46-89.58-145.32-87.19S237,300.38,171.29,406.78s5.16,144.45,5.16,144.45,55,29.49,161.39-10S382.14,372,371.38,356.48ZM254.82,288.19c17.77,0,32.19,12.26,32.19,27.38S272.59,343,254.82,343s-32.19-12.26-32.19-27.38S237,288.19,254.82,288.19Zm16.43,211.86c-26.85,0-48.62-18.51-48.62-41.35s21.77-41.36,48.62-41.36,48.63,18.51,48.63,41.36S298.11,500.05,271.25,500.05Z"/></svg>