<svg id="Layer_1" data-name="Layer 1" xmlns="http://www.w3.org/2000/svg" viewBox="0 0 612 792"><defs><style>.cls-1{fill:#249828;}</style></defs><path class="cls-1" d="M363.07,368.25c-10.76-15.54-32-59.26-43.61-95.12s-4.34-134.81-40.2-132.42S188.53,261.85,122.78,368.25s40.91,150.37,40.91,150.37,55,29.49,161.39-10S373.83,383.79,363.07,368.25ZM233.91,440.57c-17.48,0-31.64-12.84-31.64-28.69s14.16-28.68,31.64-28.68,31.64,12.84,31.64,28.68S251.38,440.57,233.91,440.57Zm15.52-150.2c-17.48,0-31.64-12.84-31.64-28.68S232,233,249.43,233s31.64,12.84,31.64,28.69S266.9,290.37,249.43,290.37Z"/></svg>