<svg id="Layer_1" data-name="Layer 1" xmlns="http://www.w3.org/2000/svg" viewBox="0 0 612 792"><defs><style>.cls-1{fill:#d5ffb9;}</style></defs><path class="cls-1" d="M353.2,151.81C283.59,112.49,150.55,158,244,217c19.39,12.26-72.47,7.68-115.42,51.1C48.35,349.17,198.11,387,221,386.18,472.15,377.37,428.1,194.1,353.2,151.81ZM204.29,333.75c-12.89,0-23.35-8.68-23.35-19.38S191.4,295,204.29,295s23.35,8.68,23.35,19.39S217.19,333.75,204.29,333.75ZM299,210.53c-12.9,0-23.35-8.68-23.35-19.38s10.45-19.39,23.35-19.39,23.35,8.68,23.35,19.39S311.91,210.53,299,210.53Z"/></svg>