<svg id="Layer_1" data-name="Layer 1" xmlns="http://www.w3.org/2000/svg" viewBox="0 0 19.32 28.12"><defs><style>.cls-1{fill:#487736;}.cls-1,.cls-2,.cls-3,.cls-4{stroke:#3e5521;stroke-miterlimit:10;stroke-width:0.1px;}.cls-2{fill:#4f803b;}.cls-3{fill:#69b445;}.cls-4{fill:#5c9144;}</style></defs><path class="cls-1" d="M10.1,3.17A4.09,4.09,0,0,0,8.44,1.22c-1-.44-1.72.23-2.46,0s.06.9-.22,2.33-.92,3-.45,4A24,24,0,0,1,6.79,11c.08.56.17,2.55.75,3.22s1.2,2.22,1.7,2.78-.46,1.55.31,2.9.51,3.54,1.55,3.73,1.57-.42,2.07-.24-.32.69.24,2,.53,1.66,1.44,2.28S23,29.08,23,29.08s-.71-2.43-.05-3.24a6.13,6.13,0,0,0,1.45-3.43c.07-1.4-1.34-4.21-1.08-6.95,0,0,.25-5.34-1.88-6.93S16.71,5.71,15.92,4.9a4.16,4.16,0,0,0-2.3-1.39,26.19,26.19,0,0,0-3.52-.34c-.26.1.52.81.75,1.9" transform="translate(-5.09 -1.02)"/><path class="cls-2" d="M6.73,2.06S15.07,12,17.62,17.8s4.45,9.57,5.09,10.1" transform="translate(-5.09 -1.02)"/><path class="cls-2" d="M10.44,4.05A13,13,0,0,1,11.66,8.1" transform="translate(-5.09 -1.02)"/><path class="cls-2" d="M12.87,4.9a21.57,21.57,0,0,1,1,6.46" transform="translate(-5.09 -1.02)"/><path class="cls-2" d="M8.8,13.48s5.31,1,6.63.33" transform="translate(-5.09 -1.02)"/><path class="cls-2" d="M10.81,15.94s3.9.6,4.85.23" transform="translate(-5.09 -1.02)"/><path class="cls-2" d="M16.61,25.66s3.1-1.71,3.13-3.17" transform="translate(-5.09 -1.02)"/><path class="cls-2" d="M20.41,23.89s-.2,1.48-1.07,1.8" transform="translate(-5.09 -1.02)"/><path class="cls-2" d="M16.78,16.11s2.34-4.64,1.66-5.83" transform="translate(-5.09 -1.02)"/><path class="cls-3" d="M15,13.43" transform="translate(-5.09 -1.02)"/><path class="cls-3" d="M14.28,8.22" transform="translate(-5.09 -1.02)"/><path class="cls-3" d="M16.34,15.4" transform="translate(-5.09 -1.02)"/><path class="cls-3" d="M11,15.14" transform="translate(-5.09 -1.02)"/><path class="cls-3" d="M12.62,17.11s3.14.49,3.9.19" transform="translate(-5.09 -1.02)"/><path class="cls-3" d="M17.28,24.94s2.5-1.37,2.53-2.55" transform="translate(-5.09 -1.02)"/><path class="cls-3" d="M20.35,23.52s-.16,1.19-.86,1.44" transform="translate(-5.09 -1.02)"/><path class="cls-3" d="M17.42,17.25s1.89-3.74,1.34-4.69" transform="translate(-5.09 -1.02)"/><path class="cls-4" d="M12.37,8.69a3.1,3.1,0,0,0-1.32-1.43c-.82-.33-1.35.15-1.93,0s.05.65-.15,1.69-.7,2.16-.33,2.88a17.29,17.29,0,0,1,1.2,2.58,5.57,5.57,0,0,0,.62,2.35c.46.49.95,1.62,1.35,2s-.34,1.12.27,2.11.44,2.58,1.26,2.72,1.22-.28,1.62-.15-.25.5.2,1.44.43,1.21,1.15,1.68,6.38,1.09,6.38,1.09-.58-1.77-.07-2.36a4.23,4.23,0,0,0,1.11-2.48c0-1-1.09-3.08-.91-5.07,0,0,.15-3.89-1.54-5.06S17.58,10.6,17,10a3.4,3.4,0,0,0-1.81-1,22.67,22.67,0,0,0-2.77-.28c-.21.07.41.59.6,1.39" transform="translate(-5.09 -1.02)"/><path class="cls-2" d="M9.71,7.85s6.64,7.31,8.69,11.55,3.58,7,4.08,7.4" transform="translate(-5.09 -1.02)"/><path class="cls-2" d="M12.64,9.34a8.75,8.75,0,0,1,1,2.95" transform="translate(-5.09 -1.02)"/><path class="cls-2" d="M14.56,10a14.74,14.74,0,0,1,.8,4.72" transform="translate(-5.09 -1.02)"/><path class="cls-2" d="M11.43,16.19s4.18.79,5.21.29" transform="translate(-5.09 -1.02)"/><path class="cls-2" d="M13,18a15.85,15.85,0,0,0,3.81.21" transform="translate(-5.09 -1.02)"/><path class="cls-2" d="M17.67,25.11s2.42-1.21,2.44-2.27" transform="translate(-5.09 -1.02)"/><path class="cls-2" d="M20.64,23.86s-.14,1.08-.82,1.3" transform="translate(-5.09 -1.02)"/><path class="cls-2" d="M17.72,18.16s1.8-3.35,1.26-4.22" transform="translate(-5.09 -1.02)"/></svg>